<svg viewBox="0 0 281.595 50.375" xmlns="http://www.w3.org/2000/svg" xmlns:xlink="http://www.w3.org/1999/xlink" width="281.595215" height="50.375000" fill="none" customFrame="#000000">
	<rect id="Logo" width="281.595215" height="50.375000" x="0.000000" y="0.000000" fill="currentColor" fill-opacity="0" />
	<path id="Форма 1" d="M2.48438 49.9844Q1.79796 49.9844 1.26355 49.6994Q0.958577 49.5367 0.703125 49.2812C0.234375 48.8125 0 48.2135 0 47.4844L0 2.5C0 1.77083 0.234375 1.17188 0.703125 0.703125Q0.958585 0.447665 1.26355 0.285018Q1.79796 0 2.48438 0Q3.03651 0 3.49958 0.203091Q4.00623 0.425297 4.40625 0.890625L35 41.0938L35 2.5C35 1.77083 35.2344 1.17188 35.7031 0.703125C36.1719 0.234375 36.7708 0 37.5 0C38.1771 0 38.7604 0.234375 39.25 0.703125Q39.5519 0.986151 39.7323 1.33247Q40 1.84651 40 2.5L40 47.4844C40 48.2135 39.75 48.8125 39.25 49.2812C38.7604 49.75 38.1771 49.9844 37.5 49.9844Q36.9844 49.9844 36.4688 49.7969C36.1354 49.6615 35.8594 49.4479 35.6406 49.1562L4.98438 8.95312L4.98438 47.4844C4.98438 48.2135 4.73958 48.8125 4.25 49.2812C3.76042 49.75 3.17188 49.9844 2.48438 49.9844ZM142.708 49.9844C142.031 49.9844 141.447 49.7396 140.958 49.25C140.468 48.7604 140.223 48.1719 140.223 47.4844L140.223 2.5C140.223 1.77083 140.458 1.17188 140.926 0.703125Q141.182 0.447664 141.487 0.285018Q142.021 0 142.708 0L172.723 0C173.452 0 174.051 0.223959 174.52 0.671875C174.989 1.11979 175.223 1.70833 175.223 2.4375C175.223 3.07292 174.989 3.625 174.52 4.09375C174.051 4.5625 173.452 4.79688 172.723 4.79688L145.208 4.79688L145.208 22.4688L165.239 22.4688C165.968 22.4688 166.567 22.7031 167.036 23.1719Q167.362 23.4981 167.537 23.8915Q167.739 24.3462 167.739 24.8906Q167.739 25.4702 167.517 25.9462Q167.344 26.3171 167.036 26.625C166.567 27.0938 165.968 27.3281 165.239 27.3281L145.208 27.3281L145.208 47.4844C145.208 48.1719 144.973 48.7604 144.505 49.25C144.036 49.7396 143.437 49.9844 142.708 49.9844ZM191.098 49.9844C189.39 49.9844 187.864 49.5156 186.52 48.5781C185.176 47.6406 184.13 46.3385 183.38 44.6719C182.64 43.0052 182.27 41.0833 182.27 38.9062L182.27 2.4375C182.27 1.70833 182.494 1.11979 182.942 0.671875C183.39 0.223959 183.973 0 184.692 0C185.421 0 186.01 0.223959 186.458 0.671875C186.906 1.11979 187.13 1.70833 187.13 2.4375L187.13 38.9062C187.13 40.75 187.499 42.25 188.239 43.4062C188.989 44.5521 189.942 45.125 191.098 45.125L192.692 45.125C193.338 45.125 193.853 45.349 194.239 45.7969C194.624 46.2448 194.817 46.8281 194.817 47.5469C194.817 48.276 194.546 48.8646 194.005 49.3125C193.473 49.7604 192.781 49.9844 191.926 49.9844L191.098 49.9844ZM100.347 20.2028Q101.37 18.7952 102.663 17.71Q103.537 16.9767 104.534 16.3906Q105.558 15.787 106.655 15.3862Q108.825 14.5938 111.284 14.5938Q114.237 14.5938 115.831 15.4219Q116.729 15.8838 117.004 16.5889Q117.126 16.9009 117.126 17.2605Q117.126 17.545 117.05 17.8594C116.883 18.4948 116.597 18.9219 116.191 19.1406C115.784 19.349 115.289 19.4323 114.706 19.3906C114.133 19.349 113.487 19.3073 112.769 19.2656C110.373 19.0469 108.248 19.2917 106.394 20C104.539 20.7083 103.066 21.7865 101.972 23.2344C100.888 24.6823 100.347 26.4115 100.347 28.4219L100.347 47.5469C100.347 48.3177 100.133 48.9167 99.7061 49.3438C99.2791 49.7708 98.6801 49.9844 97.9093 49.9844C97.1488 49.9844 96.5551 49.7708 96.128 49.3438C95.7009 48.9167 95.4874 48.3177 95.4874 47.5469L95.4874 17.4062C95.4874 16.6354 95.7009 16.0365 96.128 15.6094Q96.2152 15.5222 96.3116 15.4469L96.3121 15.4465Q96.9242 14.9688 97.9093 14.9688C98.6801 14.9688 99.2791 15.1823 99.7061 15.6094C100.133 16.0365 100.347 16.6354 100.347 17.4062L100.347 20.2028ZM215.617 50.2969C212.2 50.2969 209.148 49.5312 206.461 48C203.773 46.4688 201.659 44.3594 200.117 41.6719Q199.767 41.0556 199.471 40.4147L199.47 40.414Q197.82 36.8465 197.82 32.5156Q197.82 27.8102 199.71 24.0561Q199.903 23.6715 200.117 23.2969C201.659 20.6094 203.773 18.5 206.461 16.9688C209.148 15.4271 212.2 14.6562 215.617 14.6562C219.023 14.6562 222.06 15.4271 224.726 16.9688C227.393 18.5 229.492 20.6094 231.023 23.2969C232.565 25.9844 233.356 29.0573 233.398 32.5156Q233.398 36.7042 231.823 40.1788Q231.477 40.9426 231.054 41.6719Q229.811 43.8247 228.091 45.4831Q226.59 46.9298 224.726 48C222.06 49.5312 219.023 50.2969 215.617 50.2969ZM67.3781 50.375C64.3573 50.375 61.649 49.7448 59.2531 48.4844C56.8677 47.224 54.9823 45.3802 53.5969 42.9531C52.2115 40.5156 51.5188 37.5469 51.5188 34.0469L51.5188 17.4062C51.5188 16.7292 51.7531 16.1562 52.2219 15.6875C52.6906 15.2083 53.2635 14.9688 53.9406 14.9688C54.6698 14.9688 55.2688 15.2083 55.7375 15.6875C56.2063 16.1562 56.4406 16.7292 56.4406 17.4062L56.4406 34.0469C56.4406 36.6927 56.9406 38.8698 57.9406 40.5781C58.951 42.2865 60.3156 43.5677 62.0344 44.4219C63.7635 45.276 65.7167 45.7031 67.8938 45.7031Q71.0344 45.7031 73.5656 44.4844C75.2531 43.6719 76.5865 42.5625 77.5656 41.1562C78.5448 39.75 79.0344 38.151 79.0344 36.3594L79.0344 17.4062C79.0344 16.6771 79.2583 16.0885 79.7063 15.6406C80.1542 15.1927 80.7427 14.9688 81.4719 14.9688Q82.2081 14.9688 82.7695 15.2821Q83.0302 15.4276 83.2531 15.6406C83.7219 16.0885 83.9563 16.6771 83.9563 17.4062L83.9563 47.4844Q83.9563 48.3727 83.5413 48.9751Q83.4161 49.1568 83.2531 49.3125C82.7844 49.7604 82.1906 49.9844 81.4719 49.9844C80.7427 49.9844 80.1542 49.7604 79.7063 49.3125C79.2583 48.8646 79.0344 48.2552 79.0344 47.4844L79.0344 45.3132C77.8971 46.6107 76.5325 47.6886 74.9406 48.5469Q74.3467 48.8671 73.7288 49.1313L73.7274 49.1318Q70.8184 50.375 67.3781 50.375ZM249.025 49.9844C248.462 49.9844 247.968 49.8385 247.541 49.5469C247.113 49.2448 246.817 48.8594 246.65 48.3906L236.666 18.4375C236.545 17.9408 236.485 17.4932 236.485 17.0947C236.485 16.6324 236.566 16.2363 236.728 15.9062C237.03 15.2812 237.629 14.9688 238.525 14.9688C239.077 14.9688 239.567 15.1198 239.994 15.4219C240.421 15.724 240.738 16.1927 240.947 16.8281L249.124 41.804L256.697 16.8906C256.863 16.3385 257.15 15.8802 257.556 15.5156C257.962 15.151 258.488 14.9688 259.134 14.9688C259.77 14.9688 260.291 15.1406 260.697 15.4844C261.103 15.8281 261.389 16.2969 261.556 16.8906L268.918 41.6651L277.056 16.8281C277.483 15.5885 278.27 14.9688 279.416 14.9688Q280.332 14.9688 280.87 15.4199Q281.158 15.6611 281.337 16.0312C281.509 16.3854 281.595 16.763 281.595 17.1641C281.595 17.5651 281.509 17.9896 281.337 18.4375L271.353 48.3906C271.186 48.8594 270.9 49.2448 270.494 49.5469C270.087 49.8385 269.608 49.9844 269.056 49.9844C268.494 49.9844 267.988 49.8385 267.541 49.5469C267.093 49.2448 266.806 48.8594 266.681 48.3906L259.001 22.8958L251.322 48.3906C251.155 48.901 250.858 49.2969 250.431 49.5781C250.004 49.849 249.535 49.9844 249.025 49.9844ZM215.617 45.8281C218.086 45.8281 220.299 45.2552 222.258 44.1094C224.226 42.9531 225.763 41.375 226.867 39.375C227.981 37.3646 228.539 35.0781 228.539 32.5156C228.539 29.9531 227.981 27.6615 226.867 25.6406C225.763 23.6094 224.226 22.0208 222.258 20.875C220.299 19.7188 218.086 19.1406 215.617 19.1406C213.138 19.1406 210.914 19.7188 208.945 20.875Q207.745 21.5771 206.751 22.5008L206.751 22.5011Q205.312 23.8386 204.304 25.6406Q204.119 25.9731 203.954 26.3154Q202.617 29.0935 202.617 32.5156Q202.617 35.9783 203.986 38.7689L203.987 38.7694Q204.137 39.0763 204.304 39.375Q205.228 41.0016 206.514 42.2562Q207.6 43.3154 208.945 44.1094C210.914 45.2552 213.138 45.8281 215.617 45.8281Z" fill="rgb(255,255,255)" fill-rule="evenodd" />
</svg>
